<svg width="553" height="235.3" xmlns="http://www.w3.org/2000/svg" data-name="Layer 1">

 <title>libp2p logo</title>
 <g>
  <path id="svg_3" fill="#A33768" d="m195.382,128.5216l-22.709,13.0144l-0.194,0.097l0,26.384l22.903,-13.111l0,-26.3844z"/>
  <path id="svg_4" fill="#3DA1BD" d="m172.479,141.633l-22.7079,13.015l-0.1941,0.097l0,26.384l22.902,-13.112l0,-26.384z"/>
  <path id="svg_5" fill="#81D2E0" d="m80.9024,167.695l0,-26.384l-22.90234,-13.2403l0,26.3523l22.90234,13.272z"/>
  <path id="svg_6" fill="#81D2E0" d="m103.8047,180.968l0,-26.384l-22.9023,-13.273l0,26.384l22.9023,13.273z"/>
  <path id="svg_7" fill="#36A4CB" d="m126.707,194.24l0,-26.384l-22.9023,-13.272l0,26.384l22.9023,13.272z"/>
  <path id="svg_8" fill="#3DA1BD" d="m149.577,154.744l-22.6758,13.015l-0.1941,0.097l0,26.384l22.8699,-13.111l0,-26.385z"/>
  <path id="svg_9" fill="#994FA0" d="m195.382,102.2019l-22.908,13.0841l-0.027,26.379l0.032,0l22.87,-13.079l0.033,-26.3841z"/>
  <path id="svg_10" fill="#994FA0" d="m172.479,115.2814l-22.7079,13.0149l-0.1941,0.0966l0,26.3841l22.902,-13.111l0,-26.3846l0,0.0322l0,-0.0322z"/>
  <path id="svg_11" fill="#FFC41A" d="m80.9024,141.311l0,-26.352l-22.90234,-13.3048l0,26.3841l22.90234,13.2727z"/>
  <path id="svg_12" fill="#F39B35" d="m103.7724,154.583l0.0323,-26.3514l-22.9023,-13.3048l0,26.3842l22.87,13.272z"/>
  <path id="svg_13" fill="#38727B" d="m126.6746,167.888l0,-26.384l-22.8699,-13.2724l-0.0324,26.3514l0.0324,0.033l22.8699,13.272z"/>
  <path id="svg_14" fill="#1C6B7D" d="m149.5769,128.3927l-22.7082,12.9823l-0.194,0.129l0,26.384l22.9022,-13.111l0,-26.3843z"/>
  <path id="svg_15" fill="#C4CD46" d="m126.6747,62.3841l0.269,-0.1502l22.6333,-12.9613l-22.9023,-13.2726l-22.87,13.1115l22.87,13.2726z"/>
  <path id="svg_16" fill="#F064A4" d="m149.577,75.657l0.194,-0.1289l22.708,-12.9827l-22.902,-13.2726l-22.9023,13.1116l22.9023,13.2726z"/>
  <path id="svg_17" fill="#AA6AAB" d="m172.479,88.9296l0.194,-0.1289l22.676,-12.9827l-22.87,-13.2726l-22.902,13.1115l22.902,13.2727z"/>
  <path id="svg_18" fill="#994FA0" d="m195.382,75.818l-22.709,12.9827l-0.194,0.1288l0,26.3519l22.903,-13.0793l0,-0.0322l0,-26.3519z"/>
  <path id="svg_19" fill="#CDDD40" d="m103.8047,75.4955l0.2262,-0.1294l22.6437,-12.9822l-22.8699,-13.2726l-22.9023,13.1116l22.9023,13.2726z"/>
  <path id="svg_20" fill="#CDDD40" d="m126.6747,88.7683l22.9023,-13.1115l-22.9023,-13.2726l-22.87,13.1115l22.87,13.2726z"/>
  <path id="svg_21" fill="#8F499E" d="m149.5769,102.0407l22.9021,-13.1115l-22.9021,-13.3693l-0.1294,0l0.1294,0l-22.967,13.2404l22.967,13.2404z"/>
  <path id="svg_22" fill="#5F356B" d="m172.479,88.8971l-22.7079,13.0149l-0.194,0.1288l-0.0043,26.3662l22.9352,-13.1408l-0.029,-26.3691z"/>
  <path id="svg_23" fill="#FFD75A" d="m80.9024,88.6074l0.194,-0.1289l22.7083,-12.9826l-22.9023,-13.2726l-22.90234,13.1115l22.90234,13.2726z"/>
  <path id="svg_24" fill="#FFC41A" d="m80.9024,114.9592l0,-26.3519l-22.90225,-13.2726l0,26.3842l22.90225,13.2403z"/>
  <path id="svg_25" fill="#F8B730" d="m103.8366,101.9162l22.8699,-13.1437l-22.8699,-13.2404l-22.9023,13.1115l22.9023,13.2726z"/>
  <path id="svg_26" fill="#F39B35" d="m103.8047,128.2316l0,-26.3519l-22.9023,-13.2726l0,26.3519l0,0.0322l22.9023,13.2404z"/>
  <path id="svg_27" fill="#F8B730" d="m126.707,115.12l0.1941,-0.0967l22.6829,-12.9824l-22.877,-13.2728l-22.9023,13.1115l22.9023,13.2404z"/>
  <path id="svg_28" fill="#F39B35" d="m126.6712,141.503l0.0358,-26.383l-22.9023,-13.2726l0,26.3519l0,0.0322l22.8665,13.2715z"/>
  <path id="svg_29" fill="#FAAA36" d="m149.577,102.0408l-22.6758,12.9826l-0.1941,0.0967l0,0.0322l-0.0386,26.3677l22.9085,-13.1273l0,-26.3519z"/>
  <text font-style="normal" font-weight="bold" xml:space="preserve" text-anchor="start" font-family="Helvetica" font-size="100" id="svg_32" y="156" x="230" stroke-width="0" stroke="#000000" fill="#ffffff">libp2p</text>
 </g>
</svg>