<?xml version="1.0" standalone="no"?>
<!DOCTYPE svg PUBLIC "-//W3C//DTD SVG 20010904//EN"
 "http://www.w3.org/TR/2001/REC-SVG-20010904/DTD/svg10.dtd">
<svg version="1.0" xmlns="http://www.w3.org/2000/svg"
 width="64.000000pt" height="64.000000pt" viewBox="0 0 64.000000 64.000000"
 preserveAspectRatio="xMidYMid meet">

<g transform="translate(0.000000,64.000000) scale(0.100000,-0.100000)"
fill="#000000" stroke="none">
<path d="M366 543 l-30 -16 23 -18 c36 -29 51 -24 51 16 0 39 -3 41 -44 18z"/>
<path d="M411 475 c-40 -24 -75 -46 -78 -49 -3 -2 13 -14 36 -26 40 -20 41
-22 41 -73 0 -51 -1 -52 -44 -75 l-43 -23 -34 20 c-19 12 -37 21 -41 21 -5 0
-8 -21 -8 -48 0 -46 2 -48 44 -71 l44 -24 78 46 79 46 5 -49 5 -49 40 22 40
23 2 151 2 152 -44 25 c-24 14 -45 26 -47 26 -2 0 -36 -20 -77 -45z m149 -9
c0 -2 -7 -7 -16 -10 -8 -3 -12 -2 -9 4 6 10 25 14 25 6z"/>
<path d="M438 174 c-38 -20 -36 -28 2 -9 17 9 30 18 30 20 0 7 -1 6 -32 -11z"/>
<path d="M363 130 c-18 -11 -33 -22 -33 -25 0 -2 16 5 35 16 19 12 35 23 35
25 0 6 -3 5 -37 -16z"/>
<path d="M403 81 c-34 -20 -66 -40 -70 -45 -9 -10 127 63 142 76 21 19 -14 4
-72 -31z"/>
</g>
</svg>
