<svg width="670" height="220" viewBox="0 0 670 220" fill="none" xmlns="http://www.w3.org/2000/svg">
<path d="M135.966 104.506C138.876 101.53 143.595 101.53 146.505 104.506C149.416 107.483 149.416 112.29 146.505 115.266C143.595 118.243 138.876 118.243 135.966 115.266C133.055 112.29 133.055 107.483 135.966 104.506Z" fill="#179EFF"/>
<path d="M158.765 92.0266C161.102 90.0422 164.586 90.3509 166.526 92.7322C168.489 95.1135 168.18 98.6635 165.843 100.67C163.506 102.654 160.022 102.346 158.081 99.9644C156.119 97.5831 156.45 94.0331 158.787 92.0266" fill="#179EFF"/>
<path d="M158.081 119.831C160.044 117.449 163.505 117.119 165.843 119.125C168.18 121.11 168.489 124.66 166.548 127.063C164.586 129.444 161.124 129.775 158.787 127.769C156.45 125.784 156.141 122.234 158.103 119.831" fill="#179EFF"/>
<path d="M180.285 80.4067C182.005 79.0617 184.43 79.4145 185.753 81.1564C187.054 82.8983 186.723 85.3899 185.025 86.7349C183.306 88.0578 180.858 87.7271 179.557 85.9852C178.256 84.2433 178.587 81.7517 180.285 80.4067Z" fill="#179EFF"/>
<path d="M179.932 107.108C181.432 105.565 183.879 105.565 185.4 107.108C186.9 108.652 186.9 111.143 185.4 112.687C183.901 114.23 181.454 114.23 179.932 112.687C178.433 111.143 178.433 108.652 179.932 107.108Z" fill="#179EFF"/>
<path d="M179.557 133.81C180.858 132.068 183.306 131.737 185.026 133.06C186.746 134.405 187.054 136.897 185.753 138.639C184.452 140.381 182.005 140.712 180.285 139.389C178.565 138.044 178.234 135.552 179.557 133.81Z" fill="#179EFF"/>
<path d="M134.555 134.207C136.693 130.436 141.412 129.158 145.094 131.318C148.776 133.501 150.055 138.308 147.916 142.078C145.778 145.849 141.059 147.128 137.377 144.967C133.695 142.784 132.416 137.977 134.555 134.207Z" fill="#179EFF"/>
<path d="M157.398 147.657C158.963 144.879 162.447 143.931 165.159 145.54C167.871 147.15 168.819 150.7 167.232 153.478C165.644 156.256 162.182 157.204 159.47 155.595C156.758 153.985 155.81 150.435 157.398 147.657Z" fill="#179EFF"/>
<path d="M109.661 119.522C112.616 114.319 119.142 112.511 124.258 115.531C129.373 118.552 131.115 125.211 128.16 130.437C125.206 135.64 118.679 137.448 113.586 134.428C108.47 131.407 106.728 124.748 109.683 119.522" fill="#179EFF"/>
<path d="M179.204 160.512C180.307 158.549 182.754 157.888 184.673 159.012C186.591 160.137 187.23 162.629 186.128 164.591C185.025 166.553 182.578 167.215 180.66 166.09C178.741 164.966 178.08 162.474 179.204 160.512Z" fill="#179EFF"/>
<path d="M119.208 144.901C123.177 145.981 125.536 150.171 124.478 154.228C123.42 158.285 119.319 160.688 115.35 159.608C111.381 158.527 109.022 154.338 110.08 150.281C111.138 146.224 115.239 143.82 119.208 144.901Z" fill="#4589FF"/>
<path d="M93.3446 158.505C97.6001 158.505 101.062 162.033 101.062 166.377C101.062 170.721 97.6001 174.249 93.3446 174.249C89.0891 174.249 85.6273 170.721 85.6273 166.377C85.6273 162.033 89.0891 158.505 93.3446 158.505Z" fill="#4589FF"/>
<path d="M141.214 158.836C144.08 159.894 145.535 163.136 144.499 166.046C143.463 168.957 140.287 170.456 137.421 169.398C134.555 168.339 133.099 165.098 134.136 162.166C135.172 159.255 138.347 157.756 141.214 158.814" fill="#4589FF"/>
<path d="M117.268 172.132C120.267 172.661 122.273 175.571 121.744 178.636C121.215 181.701 118.371 183.752 115.372 183.223C112.373 182.693 110.367 179.783 110.896 176.718C111.425 173.653 114.269 171.603 117.268 172.132Z" fill="#4589FF"/>
<path d="M93.3444 185.405C96.4754 185.405 99.0331 188.007 99.0331 191.204C99.0331 194.401 96.4974 197.003 93.3444 197.003C90.1913 197.003 87.6556 194.401 87.6556 191.204C87.6556 188.007 90.1913 185.405 93.3444 185.405Z" fill="#4589FF"/>
<path d="M93.3447 129.136C99.2319 129.136 104.017 134.008 104.017 140.05C104.017 146.091 99.2319 150.964 93.3447 150.964C87.4576 150.964 82.6729 146.091 82.6729 140.05C82.6729 134.008 87.4576 129.136 93.3447 129.136Z" fill="#4589FF"/>
<path d="M161.83 172.044C163.814 172.881 164.762 175.219 163.924 177.247C163.086 179.276 160.815 180.224 158.831 179.386C156.847 178.548 155.898 176.211 156.736 174.182C157.574 172.154 159.845 171.206 161.83 172.044Z" fill="#4589FF"/>
<path d="M138.987 185.075C141.037 185.648 142.272 187.809 141.721 189.903C141.169 191.998 139.053 193.255 136.98 192.704C134.908 192.13 133.695 189.969 134.246 187.875C134.797 185.78 136.914 184.523 138.987 185.075Z" fill="#4589FF"/>
<path d="M116.165 198.106C118.304 198.393 119.804 200.377 119.539 202.56C119.274 204.743 117.312 206.286 115.173 205.999C113.034 205.713 111.535 203.728 111.8 201.546C112.064 199.363 114.027 197.819 116.165 198.106Z" fill="#4589FF"/>
<path d="M93.3444 211.137C95.5494 211.137 97.3354 212.967 97.3354 215.216C97.3354 217.465 95.5494 219.295 93.3444 219.295C91.1395 219.295 89.3535 217.465 89.3535 215.216C89.3535 212.967 91.1395 211.137 93.3444 211.137Z" fill="#4589FF"/>
<path d="M29.9308 174.182C30.7687 176.211 29.8206 178.548 27.8362 179.386C25.8517 180.224 23.5586 179.276 22.7428 177.247C21.9049 175.219 22.853 172.881 24.8375 172.044C26.8219 171.206 29.115 172.154 29.9308 174.182Z" fill="#3FCCFC"/>
<path d="M110.08 69.5143C109.022 65.4572 111.381 61.2899 115.35 60.1874C119.319 59.107 123.42 61.5104 124.478 65.5674C125.536 69.6245 123.177 73.7918 119.208 74.8943C115.239 75.9747 111.138 73.5713 110.08 69.5143Z" fill="#00FF30"/>
<path d="M134.555 85.5881C132.416 81.8177 133.695 77.0109 137.377 74.828C141.059 72.6452 145.778 73.9461 147.916 77.7165C150.055 81.4869 148.776 86.3157 145.094 88.4766C141.412 90.6594 136.671 89.3585 134.555 85.5881Z" fill="#00FF30"/>
<path d="M110.896 43.0992C110.367 40.0343 112.373 37.1238 115.372 36.5947C118.371 36.0655 121.237 38.1161 121.744 41.1809C122.273 44.2458 120.267 47.1563 117.268 47.6855C114.269 48.2146 111.403 46.1641 110.896 43.0992Z" fill="#00FF30"/>
<path d="M134.136 57.6076C133.077 54.6971 134.555 51.4559 137.421 50.3975C140.287 49.3391 143.44 50.8385 144.499 53.749C145.535 56.6595 144.08 59.9008 141.213 60.9591C138.347 62.0175 135.194 60.5181 134.136 57.6076Z" fill="#00FF30"/>
<path d="M157.398 72.1383C155.832 69.3601 156.758 65.8101 159.47 64.2005C162.182 62.5909 165.666 63.5391 167.232 66.3173C168.797 69.0955 167.871 72.6454 165.159 74.255C162.447 75.8646 158.963 74.9165 157.398 72.1383Z" fill="#00FF30"/>
<path d="M109.661 100.273C106.706 95.0694 108.47 88.3885 113.564 85.3677C118.679 82.3469 125.206 84.155 128.138 89.3586C131.093 94.5623 129.329 101.243 124.236 104.264C119.12 107.285 112.594 105.477 109.639 100.273" fill="#00FF30"/>
<path d="M111.8 18.2496C111.535 16.0667 113.034 14.0823 115.173 13.7956C117.312 13.509 119.274 15.0524 119.539 17.2353C119.804 19.4182 118.304 21.4026 116.165 21.6893C114.027 21.9759 112.064 20.4325 111.8 18.2496Z" fill="#00FF30"/>
<path d="M134.268 31.9422C133.717 29.8475 134.929 27.6867 137.002 27.1134C139.053 26.5401 141.169 27.7969 141.743 29.9137C142.294 32.0083 141.059 34.1692 139.009 34.7425C136.958 35.3157 134.819 34.0589 134.268 31.9422Z" fill="#00FF30"/>
<path d="M156.736 45.6127C155.898 43.5842 156.847 41.247 158.831 40.4091C160.815 39.5712 163.109 40.5194 163.924 42.5479C164.74 44.5764 163.814 46.9136 161.83 47.7515C159.845 48.5894 157.552 47.6413 156.736 45.6127Z" fill="#00FF30"/>
<path d="M179.205 59.2834C178.102 57.321 178.764 54.8294 180.66 53.7049C182.578 52.5804 185.026 53.2419 186.128 55.2043C187.231 57.1667 186.569 59.6582 184.673 60.7828C182.755 61.9073 180.307 61.2458 179.205 59.2834Z" fill="#00FF30"/>
<path d="M93.3445 122.278C86.6415 122.278 81.2174 116.744 81.2174 109.887C81.2174 103.029 86.6415 97.4949 93.3445 97.4949C100.048 97.4949 105.472 103.029 105.472 109.887C105.472 116.744 100.048 122.278 93.3445 122.278Z" fill="#00FF30"/>
<path d="M93.3446 61.2901C89.0891 61.2901 85.6273 57.7622 85.6273 53.4185C85.6273 49.0748 89.0891 45.5469 93.3446 45.5469C97.6001 45.5469 101.062 49.0748 101.062 53.4185C101.062 57.7622 97.6001 61.2901 93.3446 61.2901Z" fill="#00FF30"/>
<path d="M93.3444 34.3897C90.2134 34.3897 87.6556 31.7879 87.6556 28.5907C87.6556 25.3936 90.1913 22.7917 93.3444 22.7917C96.4974 22.7917 99.0331 25.3936 99.0331 28.5907C99.0331 31.7879 96.4974 34.3897 93.3444 34.3897Z" fill="#00FF30"/>
<path d="M93.3447 90.6596C87.4355 90.6596 82.6729 85.7867 82.6729 79.7452C82.6729 73.7037 87.4576 68.8308 93.3447 68.8308C99.2319 68.8308 104.017 73.7037 104.017 79.7452C104.017 85.7867 99.2319 90.6596 93.3447 90.6596Z" fill="#00FF30"/>
<path d="M93.3444 8.65824C91.1395 8.65824 89.3535 6.82815 89.3535 4.57912C89.3535 2.33009 91.1395 0.5 93.3444 0.5C95.5494 0.5 97.3354 2.33009 97.3354 4.57912C97.3354 6.82815 95.5494 8.65824 93.3444 8.65824Z" fill="#00FF30"/>
<path d="M76.587 150.281C77.6453 154.338 75.286 158.505 71.3172 159.608C67.3483 160.688 63.2471 158.285 62.1888 154.228C61.1304 150.171 63.4897 146.003 67.4585 144.901C71.4274 143.82 75.5286 146.224 76.587 150.281Z" fill="#3FCCFC"/>
<path d="M75.7712 176.696C76.3004 179.761 74.2939 182.671 71.2952 183.2C68.2965 183.73 65.4301 181.679 64.9229 178.614C64.3937 175.549 66.4002 172.639 69.3989 172.11C72.3976 171.58 75.2641 173.631 75.7712 176.696Z" fill="#3FCCFC"/>
<path d="M52.5314 162.188C53.5677 165.098 52.1124 168.339 49.246 169.398C46.3796 170.456 43.2266 168.957 42.1682 166.046C41.1319 163.136 42.5871 159.894 45.4535 158.836C48.3199 157.778 51.473 159.277 52.5314 162.188Z" fill="#3FCCFC"/>
<path d="M74.8673 201.546C75.1319 203.728 73.6326 205.713 71.4938 205.999C69.355 206.286 67.3926 204.743 67.128 202.56C66.8634 200.377 68.3628 198.393 70.5016 198.106C72.6404 197.819 74.6028 199.363 74.8673 201.546Z" fill="#3FCCFC"/>
<path d="M52.3988 187.853C52.9501 189.948 51.7374 192.108 49.6647 192.682C47.6141 193.255 45.4754 191.998 44.9241 189.881C44.3729 187.787 45.6077 185.626 47.6582 185.053C49.7309 184.479 51.8476 185.736 52.3988 187.853Z" fill="#3FCCFC"/>
<path d="M52.1123 134.207C54.2511 137.977 52.9722 142.784 49.29 144.967C45.6078 147.15 40.8892 145.849 38.7504 142.079C36.6117 138.308 37.8905 133.479 41.5728 131.319C45.255 129.136 49.9735 130.437 52.1123 134.207Z" fill="#00FFA3"/>
<path d="M29.2914 147.657C30.8569 150.435 29.9308 153.985 27.2187 155.595C24.5067 157.204 21.0229 156.256 19.4574 153.478C17.8919 150.7 18.8179 147.15 21.53 145.54C24.2421 143.931 27.7259 144.879 29.2914 147.657Z" fill="#00FFA3"/>
<path d="M77.0058 119.522C79.9605 124.726 78.1965 131.407 73.1031 134.428C67.9877 137.448 61.4611 135.64 58.5285 130.437C55.5739 125.233 57.3379 118.552 62.4313 115.531C67.5467 112.511 74.0733 114.319 77.0279 119.522" fill="#00FFA3"/>
<path d="M7.46255 160.512C8.56501 162.474 7.90353 164.966 6.00729 166.09C4.08901 167.215 1.64153 166.553 0.539068 164.591C-0.563397 162.629 0.0980818 160.137 1.99432 159.012C3.91261 157.888 6.36008 158.549 7.46255 160.512Z" fill="#00FFA3"/>
<path d="M6.73483 112.687C5.23548 114.23 2.78801 114.23 1.2666 112.687C-0.232748 111.143 -0.232748 108.652 1.2666 107.108C2.76596 105.565 5.21343 105.565 6.73483 107.108C8.23418 108.652 8.23418 111.143 6.73483 112.687Z" fill="#00FFA3"/>
<path d="M50.7012 115.289C47.7907 118.265 43.0721 118.265 40.1616 115.289C37.2511 112.312 37.2511 107.505 40.1616 104.529C43.0721 101.552 47.7907 101.552 50.7012 104.529C53.6117 107.505 53.6117 112.312 50.7012 115.289Z" fill="#00FFA3"/>
<path d="M27.9021 127.769C25.5649 129.753 22.0811 129.444 20.1408 127.063C18.1784 124.682 18.4871 121.132 20.8243 119.125C23.1615 117.141 26.6453 117.45 28.5856 119.831C30.548 122.212 30.2173 125.762 27.9021 127.769Z" fill="#00FFA3"/>
<path d="M28.5856 99.9643C26.6233 102.346 23.1615 102.676 20.8243 100.67C18.4871 98.6855 18.1784 95.1355 20.1408 92.7322C22.1032 90.3508 25.5649 90.0201 27.9021 92.0266C30.2393 94.011 30.548 97.561 28.5856 99.9643Z" fill="#00FFA3"/>
<path d="M6.38218 139.389C4.66233 140.734 2.23691 140.381 0.913949 138.639C-0.38696 136.897 -0.0562204 134.405 1.64158 133.06C3.36142 131.737 5.78684 132.068 7.1098 133.81C8.41071 135.552 8.07997 138.044 6.38218 139.389Z" fill="#00FFA3"/>
<path d="M7.10972 85.9852C5.80881 87.7271 3.36134 88.0578 1.6415 86.7348C-0.0783485 85.3898 -0.387039 82.8983 0.91387 81.1564C2.21478 79.4145 4.66225 79.0837 6.3821 80.4067C8.10194 81.7517 8.41063 84.2433 7.10972 85.9852Z" fill="#00FFA3"/>
<path d="M67.4585 74.8943C63.4897 73.8139 61.1304 69.6245 62.1888 65.5674C63.2471 61.5104 67.3483 59.107 71.3172 60.1874C75.286 61.2678 77.6453 65.4572 76.587 69.5143C75.5286 73.5713 71.4274 75.9747 67.4585 74.8943Z" fill="#7DFF00"/>
<path d="M45.4535 60.9591C42.5871 59.9008 41.1319 56.6595 42.1682 53.749C43.2045 50.8385 46.3796 49.3391 49.246 50.3975C52.1124 51.4559 53.5677 54.6971 52.5314 57.6297C51.473 60.5402 48.3199 62.0395 45.4535 60.9812" fill="#7DFF00"/>
<path d="M69.3989 47.6634C66.4002 47.1342 64.3937 44.2237 64.9229 41.1588C65.4521 38.094 68.2965 36.0434 71.2952 36.5726C74.2939 37.1017 76.3004 40.0123 75.7712 43.0771C75.242 46.142 72.3976 48.1925 69.3989 47.6634Z" fill="#7DFF00"/>
<path d="M24.8375 47.7515C22.853 46.9136 21.9049 44.5764 22.7428 42.5479C23.5807 40.5194 25.8517 39.5712 27.8362 40.4091C29.8206 41.247 30.7687 43.5842 29.9308 45.6127C29.093 47.6413 26.8219 48.5894 24.8375 47.7515Z" fill="#7DFF00"/>
<path d="M47.6805 34.7206C45.6078 34.1473 44.3951 31.9864 44.9463 29.8918C45.4976 27.7971 47.6143 26.5403 49.6869 27.0915C51.7596 27.6648 52.9723 29.8256 52.4211 31.9203C51.8698 34.015 49.7531 35.2718 47.6805 34.7206Z" fill="#7DFF00"/>
<path d="M70.5016 21.6893C68.3628 21.4026 66.8634 19.4182 67.128 17.2353C67.3926 15.0524 69.355 13.509 71.4938 13.7956C73.6326 14.0823 75.1319 16.0667 74.8673 18.2496C74.6028 20.4325 72.6404 21.9759 70.5016 21.6893Z" fill="#7DFF00"/>
<path d="M52.1123 85.5883C49.9735 89.3587 45.255 90.6376 41.5728 88.4768C37.8905 86.2939 36.6117 81.4871 38.7504 77.7167C40.8892 73.9463 45.6078 72.6674 49.29 74.8282C52.9722 77.0111 54.2511 81.8179 52.1123 85.5883Z" fill="#7DFF00"/>
<path d="M29.2912 72.1383C27.7257 74.9165 24.2419 75.8646 21.5298 74.255C18.8177 72.6454 17.8696 69.0955 19.4572 66.3173C21.0227 63.5391 24.5065 62.5909 27.2185 64.2005C29.9306 65.8101 30.8787 69.3601 29.2912 72.1383Z" fill="#7DFF00"/>
<path d="M77.0061 100.273C74.0515 105.477 67.5249 107.285 62.4095 104.264C57.294 101.243 55.5521 94.5843 58.5067 89.3586C61.4613 84.155 67.9879 82.3469 73.0813 85.3677C78.1968 88.3885 79.9387 95.0473 76.9841 100.273" fill="#7DFF00"/>
<path d="M7.46249 59.2834C6.36002 61.2458 3.91255 61.9073 1.99426 60.7828C0.0759731 59.6582 -0.563457 57.1667 0.539008 55.2043C1.64147 53.2419 4.08895 52.5804 6.00724 53.7049C7.92552 54.8294 8.587 57.321 7.46249 59.2834Z" fill="#7DFF00"/>
<path d="M232.388 96.3041V92.2691H233.6C234.703 92.2691 235.717 92.1809 236.665 92.0265C237.613 91.8722 238.451 91.5414 239.179 91.0563C239.906 90.5713 240.458 89.8877 240.877 88.9617C241.273 88.0576 241.494 86.8449 241.494 85.3456V38.6451C241.494 37.1458 241.295 35.9331 240.877 35.0291C240.48 34.125 239.906 33.4195 239.179 32.9344C238.451 32.4493 237.613 32.1406 236.665 31.9642C235.717 31.7878 234.681 31.7217 233.6 31.7217H232.388V27.6866H260.346V31.7217H259.089C258.031 31.7217 257.017 31.8099 256.046 31.9642C255.076 32.1186 254.238 32.4493 253.533 32.9344C252.827 33.4195 252.276 34.125 251.835 35.0291C251.394 35.9331 251.196 37.1458 251.196 38.6451V85.3456C251.196 86.8449 251.416 88.0576 251.835 88.9617C252.254 89.8657 252.827 90.5713 253.533 91.0563C254.238 91.5414 255.076 91.8722 256.046 92.0265C257.017 92.1809 258.031 92.2691 259.089 92.2691H260.346V96.3041H232.388Z" fill="white"/>
<path d="M265.263 96.3041V92.2691H266.476C267.578 92.2691 268.593 92.1809 269.541 92.0265C270.489 91.8722 271.327 91.5414 272.054 91.0563C272.782 90.5713 273.333 89.8877 273.752 88.9617C274.149 88.0576 274.37 86.8449 274.37 85.3456V38.2483C274.37 36.8371 274.149 35.7126 273.73 34.8527C273.311 33.9927 272.738 33.3313 272.01 32.8682C271.283 32.4052 270.445 32.0965 269.497 31.9422C268.549 31.7878 267.534 31.7217 266.476 31.7217H265.263V27.6866H292.229C296.264 27.6866 299.77 28.1497 302.725 29.0758C305.702 30.0018 308.149 31.3248 310.089 33.0667C312.03 34.8086 313.485 36.9033 314.433 39.3728C315.381 41.8423 315.866 44.6426 315.866 47.7736C315.866 50.6179 315.425 53.352 314.521 55.9759C313.639 58.5998 312.162 60.9149 310.133 62.9435C308.105 64.95 305.437 66.5596 302.152 67.7723C298.866 68.985 294.853 69.5803 290.091 69.5803H284.049V85.8086C284.049 87.2198 284.27 88.3443 284.689 89.2042C285.108 90.0641 285.681 90.7036 286.408 91.1445C287.136 91.5855 287.974 91.8722 288.922 92.0045C289.87 92.1368 290.884 92.225 291.943 92.225H295.14V96.26H265.263V96.3041ZM284.071 65.0602H289.187C292.097 65.0602 294.589 64.7515 296.639 64.1341C298.712 63.5168 300.388 62.5466 301.711 61.1795C303.034 59.8125 303.982 58.0706 304.599 55.9318C305.217 53.793 305.525 51.2133 305.525 48.1705C305.525 45.4804 305.261 43.1432 304.731 41.1588C304.202 39.1743 303.342 37.5206 302.152 36.2197C300.961 34.8968 299.418 33.9266 297.521 33.2872C295.625 32.6477 293.332 32.317 290.598 32.317H284.071V65.0602Z" fill="white"/>
<path d="M339.68 32.5155V60.2755H362.853V64.972H339.68V85.3676C339.68 86.867 339.9 88.0797 340.319 88.9837C340.738 89.8877 341.311 90.5933 342.017 91.0784C342.722 91.5635 343.56 91.8942 344.53 92.0486C345.501 92.2029 346.515 92.2911 347.573 92.2911H350.77V96.3261H320.894V92.2911H322.106C323.165 92.2911 324.179 92.225 325.127 92.0706C326.075 91.9163 326.913 91.6296 327.641 91.2107C328.368 90.7918 328.919 90.1303 329.36 89.2704C329.779 88.4104 330 87.2859 330 85.8748V38.3144C330 36.9033 329.779 35.7788 329.36 34.9188C328.942 34.0589 328.368 33.3974 327.641 32.9344C326.913 32.4714 326.075 32.1627 325.127 32.0083C324.179 31.854 323.165 31.7878 322.106 31.7878H320.894V27.7528H369.292L369.755 44.5323H364.794L364.331 40.4091C364.198 39.3066 363.956 38.2924 363.581 37.3443C363.206 36.3961 362.655 35.5583 361.971 34.8527C361.288 34.1471 360.384 33.5738 359.326 33.1549C358.267 32.736 356.988 32.5155 355.489 32.5155H339.724H339.68Z" fill="white"/>
<path d="M395.2 97.2302C392.069 97.2302 389.312 96.8995 386.931 96.238C384.55 95.5765 382.543 94.6725 380.934 93.5039C379.324 92.3353 378.111 90.9021 377.296 89.2263C376.48 87.5506 376.083 85.7205 376.083 83.714C376.083 81.7075 376.678 80.2082 377.891 79.0175C379.104 77.8268 380.801 77.2315 383.028 77.2315C383.117 79.238 383.425 81.1563 383.955 83.0084C384.462 84.8606 385.233 86.4702 386.27 87.8813C387.306 89.2925 388.607 90.417 390.216 91.2549C391.804 92.0927 393.722 92.5337 395.993 92.5337C400.315 92.5337 403.667 91.4974 406.092 89.4027C408.517 87.3301 409.73 84.3314 409.73 80.4286C409.73 78.6868 409.488 77.1213 408.98 75.7762C408.473 74.4312 407.658 73.1965 406.489 72.0499C405.32 70.9034 403.799 69.8229 401.925 68.7646C400.028 67.7062 397.691 66.6258 394.869 65.4572C391.892 64.2445 389.312 62.9436 387.085 61.5324C384.859 60.1433 383.028 58.5998 381.551 56.88C380.074 55.1822 378.993 53.286 378.266 51.1913C377.538 49.0966 377.185 46.7373 377.185 44.1135C377.185 41.4896 377.715 38.9098 378.751 36.749C379.809 34.5882 381.264 32.7801 383.139 31.2808C385.013 29.7814 387.24 28.6569 389.798 27.8852C392.355 27.1134 395.156 26.7166 398.198 26.7166C401.241 26.7166 403.622 27.0252 405.849 27.5985C408.076 28.1939 409.951 28.9876 411.472 29.9798C413.015 30.9721 414.162 32.1407 414.956 33.4195C415.75 34.7204 416.146 36.0655 416.146 37.4766C416.146 39.5492 415.463 41.0927 414.118 42.1511C412.751 43.2094 410.921 43.7166 408.606 43.7166C408.606 42.2172 408.429 40.7399 408.054 39.2847C407.702 37.8294 407.084 36.5285 406.246 35.404C405.408 34.2795 404.284 33.3313 402.917 32.6037C401.55 31.8761 399.83 31.5233 397.801 31.5233C395.949 31.5233 394.318 31.7879 392.862 32.295C391.407 32.8022 390.172 33.5518 389.18 34.5C388.188 35.4481 387.416 36.5946 386.887 37.9396C386.358 39.2847 386.093 40.784 386.093 42.4377C386.093 44.356 386.336 46.0317 386.843 47.487C387.35 48.9422 388.188 50.2432 389.357 51.4338C390.525 52.6245 392.069 53.7269 393.965 54.7633C395.883 55.8216 398.22 56.902 400.999 58.0266C403.821 59.1731 406.312 60.4079 408.517 61.6867C410.722 62.9656 412.597 64.3988 414.118 65.9864C415.639 67.5739 416.83 69.3378 417.624 71.2782C418.44 73.2406 418.836 75.4455 418.836 77.915C418.836 80.9578 418.285 83.6699 417.161 86.0512C416.058 88.4325 414.471 90.4611 412.398 92.1148C410.325 93.7685 407.856 95.0253 404.945 95.8852C402.035 96.7451 398.794 97.1641 395.2 97.1641V97.2302Z" fill="white"/>
<path d="M447.523 96.3041V92.2691H448.735C449.838 92.2691 450.852 92.1809 451.8 92.0265C452.748 91.8722 453.586 91.5414 454.314 91.0563C455.041 90.5713 455.593 89.8877 456.012 88.9617C456.409 88.0576 456.629 86.8449 456.629 85.3456V38.6451C456.629 37.1458 456.431 35.9331 456.012 35.0291C455.615 34.125 455.041 33.4195 454.314 32.9344C453.586 32.4493 452.748 32.1406 451.8 31.9642C450.852 31.8099 449.816 31.7217 448.735 31.7217H447.523V27.6866H476.407V31.7217H474.202C473.144 31.7217 472.13 31.8099 471.16 31.9642C470.189 32.1186 469.351 32.4493 468.646 32.9344C467.94 33.4195 467.389 34.125 466.948 35.0291C466.507 35.9331 466.309 37.1458 466.309 38.6451V41.5557H474.467C482.537 41.5557 488.49 43.1653 492.327 46.4065C496.163 49.6478 498.104 54.3884 498.104 60.6504C498.104 63.4947 497.663 66.1847 496.759 68.7204C495.855 71.2561 494.399 73.483 492.371 75.3793C490.342 77.2976 487.674 78.7969 484.389 79.8773C481.104 80.9578 477.091 81.509 472.328 81.509H466.287V85.3456C466.287 86.8449 466.507 88.0576 466.926 88.9617C467.345 89.8657 467.918 90.5713 468.624 91.0563C469.329 91.5414 470.167 91.8722 471.137 92.0265C472.108 92.1809 473.122 92.2691 474.18 92.2691H476.385V96.3041H447.501H447.523ZM466.331 76.9889H471.446C474.357 76.9889 476.848 76.7243 478.899 76.2172C480.949 75.71 482.647 74.8281 483.97 73.5933C485.293 72.3585 486.241 70.7269 486.859 68.6763C487.476 66.6257 487.763 64.09 487.763 61.0472C487.763 58.3572 487.498 56.0861 486.969 54.1899C486.44 52.2937 485.58 50.7943 484.389 49.6037C483.198 48.413 481.655 47.5531 479.781 47.0018C477.885 46.4506 475.591 46.186 472.857 46.186H466.331V76.9889Z" fill="white"/>
<path d="M503.131 96.3041V92.2691H504.344C505.446 92.2691 506.461 92.1809 507.409 92.0265C508.357 91.8722 509.195 91.5414 509.922 91.0563C510.65 90.5713 511.201 89.8877 511.62 88.9617C512.017 88.0576 512.237 86.8449 512.237 85.3456V38.6451C512.237 37.1458 512.039 35.9331 511.62 35.0291C511.223 34.125 510.65 33.4195 509.922 32.9344C509.195 32.4493 508.357 32.1406 507.409 31.9642C506.461 31.7878 505.424 31.7217 504.344 31.7217H503.131V27.6866H531.09V31.7217H529.833C528.774 31.7217 527.76 31.8099 526.79 31.9642C525.82 32.1186 524.982 32.4493 524.276 32.9344C523.571 33.4195 523.02 34.125 522.579 35.0291C522.138 35.9331 521.939 37.1458 521.939 38.6451V85.3456C521.939 86.8449 522.16 88.0576 522.579 88.9617C522.998 89.8657 523.571 90.5713 524.276 91.0563C524.982 91.5414 525.82 91.8722 526.79 92.0265C527.76 92.1809 528.774 92.2691 529.833 92.2691H531.09V96.3041H503.131Z" fill="white"/>
<path d="M586.984 96.3041L550.956 40.9604V85.3677C550.956 86.867 551.176 88.0797 551.595 88.9837C552.014 89.8878 552.587 90.5933 553.293 91.0784C553.999 91.5635 554.836 91.8943 555.807 92.0486C556.777 92.2029 557.791 92.2911 558.849 92.2911H560.106V96.3262H536.006V92.2911H537.219C538.322 92.2911 539.336 92.2029 540.284 92.0486C541.232 91.8943 542.07 91.5635 542.798 91.0784C543.525 90.5933 544.076 89.9098 544.495 88.9837C544.892 88.0797 545.113 86.867 545.113 85.3677V38.2704C545.113 36.8592 544.892 35.7347 544.473 34.8748C544.054 34.0148 543.481 33.3534 542.753 32.8903C542.026 32.4273 541.188 32.1186 540.24 31.9643C539.292 31.8099 538.277 31.7438 537.219 31.7438H536.006V27.7087H553.602L587.977 80.8035V38.2704C587.977 36.8592 587.756 35.7347 587.337 34.8748C586.918 34.0148 586.345 33.3534 585.617 32.8903C584.89 32.4273 584.052 32.1186 583.104 31.9643C582.156 31.8099 581.141 31.7438 580.083 31.7438H578.826V27.7087H602.926V31.7438H601.713C600.611 31.7438 599.597 31.832 598.648 31.9863C597.7 32.1406 596.862 32.4714 596.135 32.9565C595.407 33.4416 594.856 34.1471 594.437 35.0512C594.04 35.9552 593.82 37.1679 593.82 38.6672V96.3041H586.962H586.984Z" fill="white"/>
<path d="M641.755 97.2304C636.199 97.2304 631.326 96.3925 627.203 94.6947C623.057 92.9969 619.618 90.6156 616.883 87.5287C614.149 84.4418 612.099 80.7155 610.754 76.3717C609.409 72.028 608.725 67.2213 608.725 61.9295C608.725 56.6376 609.431 51.9852 610.864 47.6636C612.297 43.3419 614.414 39.6376 617.236 36.5507C620.059 33.4638 623.586 31.0384 627.776 29.3185C631.965 27.5987 636.838 26.7388 642.372 26.7388C645.944 26.7388 649.031 27.0034 651.677 27.5546C654.323 28.1058 656.528 28.8555 658.292 29.8257C660.056 30.7958 661.379 31.9424 662.261 33.2433C663.143 34.5663 663.584 35.9774 663.584 37.5209C663.584 38.5572 663.341 39.4833 662.878 40.3211C662.415 41.159 661.776 41.8425 660.982 42.4379C660.188 43.0332 659.24 43.4521 658.16 43.7829C657.079 44.1136 655.911 44.2459 654.676 44.2459C654.676 42.7466 654.455 41.2693 654.014 39.792C653.573 38.3147 652.868 36.9917 651.854 35.8231C650.861 34.6545 649.538 33.7063 647.907 32.9567C646.275 32.229 644.291 31.8542 641.954 31.8542C637.896 31.8542 634.435 32.5157 631.568 33.8386C628.702 35.1616 626.365 37.1019 624.557 39.6597C622.749 42.2174 621.426 45.3484 620.61 49.0968C619.794 52.8231 619.397 57.1007 619.397 61.9295C619.397 66.7583 619.816 70.9697 620.654 74.696C621.492 78.4223 622.881 81.5533 624.777 84.067C626.673 86.5806 629.165 88.5209 632.186 89.8439C635.228 91.1668 638.933 91.8063 643.299 91.8063C645.151 91.8063 646.937 91.7181 648.679 91.5196C650.42 91.3432 651.964 91.0345 653.309 90.6376V75.159C653.309 73.7479 653.088 72.6234 652.669 71.7634C652.251 70.9035 651.677 70.242 650.95 69.8011C650.222 69.338 649.384 69.0514 648.436 68.875C647.488 68.7206 646.474 68.6324 645.415 68.6324H645.04V64.5974H670V68.6324H669.625C668.721 68.6324 667.861 68.7206 667.046 68.875C666.23 69.0293 665.524 69.3601 664.929 69.8452C664.334 70.3302 663.871 71.0358 663.518 71.9619C663.165 72.888 663.011 74.1007 663.011 75.6V92.8646C659.791 94.364 656.484 95.4664 653.066 96.1941C649.649 96.9217 645.9 97.2745 641.755 97.2745V97.2304Z" fill="white"/>
<path d="M231.307 148.473V119.72H241.384C244.868 119.72 247.513 120.382 249.322 121.727C251.13 123.072 252.034 125.034 252.034 127.614C252.034 129.025 251.681 130.26 250.953 131.34C250.226 132.421 249.211 133.193 247.932 133.7C249.41 134.075 250.578 134.802 251.416 135.927C252.254 137.051 252.695 138.418 252.695 140.028C252.695 142.784 251.813 144.879 250.049 146.312C248.285 147.745 245.772 148.451 242.508 148.495H231.329L231.307 148.473ZM237.239 131.759H241.626C244.625 131.715 246.102 130.525 246.102 128.187C246.102 126.886 245.727 125.938 244.978 125.365C244.228 124.792 243.015 124.505 241.384 124.505H237.239V131.759ZM237.239 135.949V143.71H242.31C243.699 143.71 244.801 143.379 245.573 142.718C246.367 142.056 246.742 141.13 246.742 139.962C246.742 137.338 245.375 135.993 242.663 135.949H237.239Z" fill="white"/>
<path d="M268.747 132.443C267.975 132.333 267.292 132.289 266.696 132.289C264.536 132.289 263.124 133.016 262.441 134.494V148.473H256.73V127.107H262.132L262.287 129.665C263.433 127.702 265.021 126.732 267.049 126.732C267.689 126.732 268.284 126.82 268.835 126.997L268.747 132.487V132.443Z" fill="white"/>
<path d="M284.292 146.29C282.881 148.01 280.94 148.87 278.449 148.87C276.156 148.87 274.414 148.208 273.201 146.885C271.988 145.562 271.371 143.644 271.349 141.108V127.107H277.06V140.932C277.06 143.159 278.074 144.283 280.102 144.283C282.131 144.283 283.366 143.622 284.093 142.277V127.129H289.826V148.495H284.446L284.292 146.312V146.29Z" fill="white"/>
<path d="M305.701 142.564C305.701 141.858 305.349 141.307 304.665 140.91C303.982 140.513 302.857 140.16 301.336 139.829C296.242 138.771 293.707 136.61 293.707 133.347C293.707 131.451 294.5 129.863 296.066 128.606C297.631 127.328 299.704 126.688 302.24 126.688C304.952 126.688 307.113 127.328 308.744 128.606C310.376 129.885 311.192 131.539 311.192 133.59H305.481C305.481 132.774 305.216 132.09 304.687 131.561C304.158 131.032 303.342 130.767 302.218 130.767C301.248 130.767 300.52 130.988 299.991 131.429C299.462 131.87 299.197 132.421 299.197 133.082C299.197 133.722 299.506 134.229 300.101 134.604C300.696 135.001 301.711 135.331 303.144 135.618C304.577 135.905 305.768 136.213 306.738 136.566C309.759 137.669 311.258 139.587 311.258 142.321C311.258 144.261 310.42 145.849 308.744 147.062C307.069 148.274 304.908 148.87 302.262 148.87C300.476 148.87 298.888 148.539 297.499 147.922C296.11 147.282 295.03 146.4 294.236 145.298C293.442 144.195 293.045 142.983 293.045 141.704H298.447C298.491 142.718 298.866 143.49 299.572 144.041C300.277 144.592 301.203 144.857 302.372 144.857C303.475 144.857 304.29 144.658 304.842 144.239C305.393 143.82 305.679 143.291 305.679 142.608L305.701 142.564Z" fill="white"/>
<path d="M326.516 142.564C326.516 141.858 326.164 141.307 325.48 140.91C324.796 140.513 323.672 140.16 322.151 139.829C317.057 138.771 314.521 136.61 314.521 133.347C314.521 131.451 315.315 129.863 316.881 128.606C318.446 127.328 320.519 126.688 323.055 126.688C325.767 126.688 327.927 127.328 329.559 128.606C331.191 129.885 332.007 131.539 332.007 133.59H326.296C326.296 132.774 326.031 132.09 325.502 131.561C324.973 131.032 324.157 130.767 323.033 130.767C322.062 130.767 321.335 130.988 320.806 131.429C320.276 131.87 320.012 132.421 320.012 133.082C320.012 133.722 320.32 134.229 320.916 134.604C321.511 135.001 322.525 135.331 323.959 135.618C325.392 135.905 326.582 136.213 327.553 136.566C330.573 137.669 332.073 139.587 332.073 142.321C332.073 144.261 331.235 145.849 329.559 147.062C327.883 148.274 325.723 148.87 323.077 148.87C321.291 148.87 319.703 148.539 318.314 147.922C316.925 147.282 315.844 146.4 315.051 145.298C314.257 144.195 313.86 142.983 313.86 141.704H319.262C319.306 142.718 319.681 143.49 320.387 144.041C321.092 144.592 322.018 144.857 323.187 144.857C324.289 144.857 325.105 144.658 325.656 144.239C326.208 143.82 326.494 143.291 326.494 142.608L326.516 142.564Z" fill="white"/>
<path d="M345.567 148.848C342.436 148.848 339.878 147.877 337.916 145.959C335.953 144.041 334.961 141.483 334.961 138.286V137.735C334.961 135.596 335.38 133.678 336.196 131.98C337.012 130.282 338.202 128.981 339.724 128.077C341.245 127.151 342.987 126.71 344.927 126.71C347.86 126.71 350.153 127.636 351.829 129.466C353.504 131.318 354.342 133.92 354.342 137.316V139.653H340.738C340.914 141.042 341.488 142.167 342.414 143.005C343.34 143.842 344.508 144.261 345.941 144.261C348.146 144.261 349.866 143.468 351.101 141.88L353.901 145.011C353.041 146.224 351.895 147.172 350.417 147.855C348.94 148.539 347.331 148.87 345.567 148.87V148.848ZM344.927 131.296C343.803 131.296 342.877 131.671 342.171 132.443C341.465 133.215 341.025 134.317 340.826 135.728H348.764V135.265C348.742 133.986 348.389 133.016 347.727 132.311C347.066 131.627 346.14 131.274 344.927 131.274V131.296Z" fill="white"/>
<path d="M363.625 148.473H357.892V118.133H363.625V148.473Z" fill="white"/>
<path d="M379.897 142.564C379.897 141.858 379.545 141.307 378.861 140.91C378.178 140.513 377.053 140.16 375.532 139.829C370.46 138.771 367.903 136.61 367.903 133.347C367.903 131.451 368.696 129.863 370.262 128.606C371.827 127.328 373.9 126.688 376.436 126.688C379.148 126.688 381.309 127.328 382.94 128.606C384.572 129.885 385.388 131.539 385.388 133.59H379.677C379.677 132.774 379.412 132.09 378.883 131.561C378.354 131.032 377.538 130.767 376.414 130.767C375.444 130.767 374.716 130.988 374.187 131.429C373.658 131.87 373.393 132.421 373.393 133.082C373.393 133.722 373.702 134.229 374.297 134.604C374.892 135.001 375.907 135.331 377.34 135.618C378.751 135.905 379.964 136.213 380.934 136.566C383.955 137.669 385.454 139.587 385.454 142.321C385.454 144.261 384.616 145.849 382.94 147.062C381.265 148.274 379.104 148.87 376.458 148.87C374.672 148.87 373.084 148.539 371.695 147.922C370.306 147.282 369.226 146.4 368.432 145.298C367.638 144.195 367.241 142.983 367.241 141.704H372.665C372.709 142.718 373.084 143.49 373.79 144.041C374.495 144.592 375.421 144.857 376.59 144.857C377.693 144.857 378.508 144.658 379.06 144.239C379.611 143.82 379.897 143.291 379.897 142.608V142.564Z" fill="white"/>
<path d="M390.613 155.661L387.637 154.095L388.342 152.817C389.224 151.207 389.687 149.597 389.709 148.01V143.578H394.538V147.525C394.494 148.98 394.141 150.457 393.414 151.957C392.686 153.434 391.76 154.669 390.635 155.639L390.613 155.661Z" fill="white"/>
<path d="M409.444 148.473V119.72H419.52C423.004 119.72 425.65 120.382 427.458 121.727C429.266 123.072 430.17 125.034 430.17 127.614C430.17 129.025 429.817 130.26 429.09 131.34C428.362 132.421 427.348 133.193 426.069 133.7C427.546 134.075 428.715 134.802 429.553 135.927C430.39 137.051 430.831 138.418 430.831 140.028C430.831 142.784 429.949 144.879 428.186 146.312C426.422 147.745 423.908 148.451 420.645 148.495H409.466L409.444 148.473ZM415.375 131.759H419.763C422.761 131.715 424.239 130.525 424.239 128.187C424.239 126.886 423.864 125.938 423.092 125.365C422.32 124.792 421.13 124.505 419.498 124.505H415.353V131.759H415.375ZM415.375 135.949V143.71H420.446C421.835 143.71 422.938 143.379 423.71 142.718C424.503 142.056 424.878 141.13 424.878 139.962C424.878 137.338 423.511 135.993 420.799 135.949H415.375Z" fill="white"/>
<path d="M444.722 148.848C441.591 148.848 439.034 147.877 437.071 145.959C435.109 144.041 434.117 141.483 434.117 138.286V137.735C434.117 135.596 434.536 133.678 435.351 131.98C436.189 130.282 437.358 128.981 438.879 128.077C440.401 127.173 442.142 126.71 444.083 126.71C447.015 126.71 449.309 127.636 450.984 129.466C452.66 131.318 453.498 133.92 453.498 137.316V139.653H439.893C440.07 141.042 440.643 142.167 441.569 143.005C442.495 143.842 443.664 144.261 445.097 144.261C447.302 144.261 449.022 143.468 450.257 141.88L453.057 145.011C452.197 146.224 451.05 147.172 449.573 147.855C448.118 148.539 446.486 148.87 444.722 148.87V148.848ZM444.061 131.296C442.936 131.296 442.01 131.671 441.305 132.443C440.599 133.215 440.158 134.317 439.96 135.728H447.897V135.265C447.875 133.986 447.523 133.016 446.861 132.311C446.2 131.627 445.274 131.274 444.061 131.274V131.296Z" fill="white"/>
<path d="M462.781 148.473H457.048V118.133H462.781V148.473Z" fill="white"/>
<path d="M466.661 137.624C466.661 134.339 467.433 131.715 468.999 129.709C470.564 127.702 472.659 126.71 475.305 126.71C477.642 126.71 479.472 127.504 480.773 129.113L481.015 127.107H486.197V147.767C486.197 149.641 485.778 151.273 484.918 152.64C484.058 154.029 482.868 155.065 481.324 155.793C479.781 156.521 477.973 156.874 475.9 156.874C474.334 156.874 472.813 156.565 471.314 155.925C469.814 155.286 468.69 154.492 467.94 153.5L470.476 150.016C471.887 151.604 473.629 152.398 475.657 152.398C477.179 152.398 478.347 152.001 479.185 151.185C480.023 150.369 480.442 149.222 480.442 147.745V146.599C479.119 148.076 477.399 148.826 475.238 148.826C472.659 148.826 470.586 147.811 468.999 145.805C467.411 143.798 466.617 141.13 466.617 137.823V137.58L466.661 137.624ZM472.372 138.043C472.372 139.984 472.769 141.505 473.541 142.608C474.312 143.71 475.393 144.261 476.738 144.261C478.48 144.261 479.714 143.6 480.464 142.299V133.303C479.692 132.002 478.48 131.34 476.782 131.34C475.415 131.34 474.334 131.892 473.563 133.016C472.791 134.141 472.394 135.816 472.394 138.043H472.372Z" fill="white"/>
<path d="M490.541 121.551C490.541 120.691 490.828 119.985 491.401 119.434C491.974 118.883 492.746 118.596 493.738 118.596C494.73 118.596 495.48 118.883 496.075 119.434C496.671 119.985 496.935 120.691 496.935 121.551C496.935 122.41 496.649 123.138 496.053 123.689C495.458 124.241 494.686 124.527 493.738 124.527C492.79 124.527 491.996 124.263 491.423 123.689C490.85 123.116 490.541 122.433 490.541 121.551ZM496.605 148.451H490.872V127.085H496.605V148.451Z" fill="white"/>
<path d="M514.089 146.29C512.678 148.01 510.738 148.87 508.246 148.87C505.953 148.87 504.211 148.208 502.999 146.885C501.786 145.562 501.169 143.644 501.146 141.108V127.107H506.857V140.932C506.857 143.159 507.872 144.283 509.9 144.283C511.929 144.283 513.163 143.622 513.891 142.277V127.129H519.624V148.495H514.244L514.089 146.312V146.29Z" fill="white"/>
<path d="M529.281 127.085L529.458 129.466C530.979 127.614 533.03 126.688 535.61 126.688C538.366 126.688 540.262 127.769 541.276 129.951C542.776 127.769 544.914 126.688 547.693 126.688C550.008 126.688 551.728 127.372 552.874 128.717C554.021 130.062 554.572 132.09 554.572 134.802V148.451H548.839V134.824C548.839 133.612 548.597 132.73 548.134 132.156C547.67 131.583 546.833 131.318 545.62 131.318C543.9 131.318 542.731 132.134 542.07 133.766V148.451H536.381V134.846C536.381 133.612 536.139 132.708 535.654 132.156C535.169 131.605 534.331 131.318 533.162 131.318C531.552 131.318 530.362 131.98 529.656 133.325V148.429H523.945V127.063H529.303L529.281 127.085Z" fill="white"/>
<path d="M249.961 197.003H231.109V194.38L241.053 183.311C242.53 181.635 243.545 180.268 244.096 179.232C244.647 178.173 244.934 177.093 244.934 175.99C244.934 174.491 244.471 173.256 243.567 172.286C242.663 171.316 241.45 170.853 239.928 170.853C238.12 170.853 236.709 171.36 235.695 172.396C234.681 173.433 234.174 174.866 234.174 176.718H230.513C230.513 174.072 231.373 171.933 233.071 170.302C234.769 168.67 237.062 167.854 239.906 167.854C242.574 167.854 244.691 168.56 246.257 169.949C247.8 171.36 248.594 173.212 248.594 175.55C248.594 178.372 246.786 181.745 243.192 185.67L235.497 194.027H249.939V197.003H249.961Z" fill="white"/>
<path d="M270.863 184.744C270.863 189.021 270.136 192.196 268.681 194.291C267.225 196.386 264.932 197.422 261.823 197.422C258.714 197.422 256.487 196.408 255.01 194.379C253.533 192.351 252.783 189.308 252.717 185.273V180.4C252.717 176.167 253.445 173.036 254.9 170.985C256.355 168.934 258.648 167.898 261.779 167.898C264.91 167.898 267.159 168.89 268.614 170.875C270.07 172.859 270.819 175.924 270.863 180.047V184.788V184.744ZM267.203 179.739C267.203 176.652 266.762 174.381 265.902 172.969C265.042 171.558 263.653 170.853 261.779 170.853C259.905 170.853 258.538 171.558 257.7 172.969C256.84 174.381 256.399 176.541 256.377 179.474V185.317C256.377 188.426 256.84 190.719 257.722 192.196C258.626 193.674 259.993 194.423 261.823 194.423C263.653 194.423 264.976 193.718 265.836 192.329C266.718 190.94 267.159 188.735 267.203 185.736V179.761V179.739Z" fill="white"/>
<path d="M293.376 197.003H274.524V194.38L284.468 183.311C285.946 181.635 286.96 180.268 287.511 179.232C288.062 178.173 288.349 177.093 288.349 175.99C288.349 174.491 287.886 173.256 286.982 172.286C286.078 171.316 284.865 170.853 283.344 170.853C281.536 170.853 280.125 171.36 279.11 172.396C278.096 173.433 277.589 174.866 277.589 176.718H273.929C273.929 174.072 274.789 171.933 276.486 170.302C278.184 168.67 280.477 167.854 283.322 167.854C285.99 167.854 288.106 168.56 289.672 169.949C291.215 171.36 292.009 173.212 292.009 175.55C292.009 178.372 290.201 181.745 286.607 185.67L278.912 194.027H293.354V197.003H293.376Z" fill="white"/>
<path d="M301.556 180.841H304.312C306.032 180.819 307.399 180.356 308.391 179.474C309.384 178.592 309.869 177.402 309.869 175.902C309.869 172.529 308.193 170.853 304.819 170.853C303.232 170.853 301.975 171.294 301.049 172.198C300.101 173.102 299.638 174.293 299.638 175.792H295.978C295.978 173.521 296.815 171.625 298.469 170.103C300.145 168.604 302.262 167.832 304.819 167.832C307.531 167.832 309.67 168.56 311.192 169.993C312.735 171.426 313.507 173.433 313.507 175.968C313.507 177.225 313.11 178.438 312.294 179.606C311.478 180.775 310.376 181.657 308.987 182.23C310.574 182.737 311.787 183.553 312.647 184.722C313.507 185.891 313.948 187.302 313.948 188.977C313.948 191.557 313.11 193.608 311.412 195.129C309.736 196.651 307.531 197.4 304.841 197.4C302.151 197.4 299.946 196.673 298.249 195.217C296.551 193.762 295.713 191.822 295.713 189.44H299.395C299.395 190.962 299.88 192.175 300.873 193.079C301.865 193.983 303.188 194.446 304.841 194.446C306.605 194.446 307.95 193.983 308.898 193.057C309.847 192.13 310.31 190.808 310.31 189.088C310.31 187.368 309.803 186.133 308.766 185.229C307.73 184.325 306.253 183.862 304.312 183.84H301.556V180.863V180.841Z" fill="white"/>
</svg>
